<svg width="36" height="36" viewBox="0 0 36 36" fill="none" xmlns="http://www.w3.org/2000/svg">
<path d="M9.07483 4.39481C8.57449 4.17636 8.0373 4.54861 8.34165 5.00186C9.66621 6.9745 12.0274 9.52175 15.66 11.3886C15.8316 11.4768 16.0382 11.4525 16.2046 11.3548C16.8767 10.9602 18.1333 10.603 19.4298 11.3685C19.5887 11.4622 19.7839 11.4808 19.9469 11.3945C21.9067 10.3568 25.3826 7.98484 27.375 4.95047C27.6725 4.49743 27.1579 4.17827 26.6591 4.39011C26.6113 4.4104 26.5699 4.42138 26.5362 4.42138C26.1208 4.42138 25.9131 4.58176 25.238 3.94025C24.563 3.29874 22.2881 1 17.3971 1C13.6257 0.999997 10.5848 3.75723 10.3963 3.93162C10.39 3.93741 10.3843 3.94312 10.3782 3.94917C10.2981 4.02948 9.68327 4.62086 9.14074 4.42138C9.11929 4.4135 9.09731 4.40462 9.07483 4.39481Z" fill="black"/>
<path d="M7.81095 7.90039C7.96485 7.59856 8.3714 7.57791 8.58393 7.84176L9.71246 9.24279C9.83811 9.39878 9.85685 9.61332 9.77478 9.79604C9.0096 11.4996 8.71171 14.6264 12.9685 15.4177C13.2138 15.4633 13.3987 15.6731 13.3987 15.9226V16.7533C13.3987 16.9297 13.3058 17.093 13.1542 17.1831L10.4593 18.7852C10.1278 18.9823 10.1348 19.4646 10.4719 19.652L12.3083 20.673C13.0699 21.0294 14.8215 22.5761 15.7354 25.912L17.3747 31.2219C17.5209 31.6953 18.1926 31.6907 18.3322 31.2153L19.8896 25.912C20.4008 24.3331 21.7976 21.1172 23.347 20.6911C23.3957 20.6777 23.4429 20.6603 23.4869 20.6353L25.2162 19.6543C25.55 19.465 25.5549 18.9858 25.225 18.7896L22.5227 17.1831C22.3711 17.093 22.2782 16.9297 22.2782 16.7533V15.9526C22.2782 15.6904 22.4804 15.4749 22.7394 15.4341C24.6844 15.1279 27.4042 13.6884 25.7804 9.79041C25.7066 9.6132 25.7313 9.40607 25.8539 9.2583L27.0733 7.78762C27.2774 7.5415 27.6518 7.55134 27.8081 7.83022C28.3128 8.73042 28.9621 10.4068 29.0287 12.6006C29.0287 16.9268 28.7555 21.4681 30.697 26.6028C30.8877 27.107 30.2445 27.5966 29.8301 27.2518L28.2894 25.9698C28.0514 25.7718 27.6926 25.8354 27.5372 26.1031L25.4623 29.6769C25.297 29.9617 24.9061 30.0116 24.6745 29.7775L22.739 27.8212C22.507 27.5867 22.1155 27.6371 21.9506 27.9228L18.2875 34.2672C18.0973 34.5966 17.6235 34.6014 17.4266 34.2758L13.5684 27.8937C13.402 27.6184 13.0226 27.5696 12.7919 27.7939L10.8871 29.646C10.6574 29.8694 10.2797 29.822 10.1122 29.5488L7.99034 26.0865C7.83055 25.8258 7.47624 25.7683 7.24221 25.9651L6.18363 26.8554C5.75505 27.2158 4.95249 26.6096 5.13653 26.0808C5.99197 23.6225 6.83636 19.9108 6.75211 15.4874C6.57665 13.8945 6.57465 10.325 7.81095 7.90039Z" fill="black"/>
<path d="M14.2483 18.7608C13.9348 18.9727 13.9499 19.4643 14.2377 19.71C15.1436 20.4832 16.3895 22.0341 17.2744 24.5684C17.445 25.0571 18.2456 25.078 18.428 24.5936C19.0918 22.8304 20.0933 20.7562 21.2466 19.7539C21.5615 19.4803 21.6161 18.8875 21.2705 18.654L20.6859 18.2591C20.5455 18.1642 20.4635 18.0058 20.4621 17.8363C20.4458 15.9543 19.9096 12.6795 17.8125 12.761C15.7207 12.8423 15.2132 16.0183 15.2123 17.8328C15.2122 18.0042 15.1301 18.1651 14.9881 18.261L14.2483 18.7608Z" fill="black"/>
<path d="M24.4352 11.2909C24.3698 11.0462 24.09 10.9916 23.8757 11.1267L21.2943 12.7529C21.0254 12.9223 21.0122 13.2697 21.3176 13.3575C21.8859 13.5209 22.7694 13.5431 23.6283 13.0818C24.5162 12.6048 24.5718 11.8028 24.4352 11.2909Z" fill="black"/>
<path d="M11.2679 11.374C11.3141 11.0608 11.6724 10.9472 11.9359 11.1226L14.2999 12.6951C14.5603 12.8684 14.584 13.2281 14.2929 13.3426C13.8489 13.5172 13.1721 13.6013 12.3083 13.2956C11.3083 12.9417 11.1663 12.0615 11.2679 11.374Z" fill="black"/>
</svg>
