<svg width="36" height="36" viewBox="0 0 36 36" fill="none" xmlns="http://www.w3.org/2000/svg">
<path fill-rule="evenodd" clip-rule="evenodd" d="M34.9663 6.047C35.04 5.58454 34.9924 5.1101 34.8283 4.67312C34.6643 4.23613 34.3897 3.85259 34.0333 3.56246C33.677 3.27233 33.2518 3.08622 32.8021 3.02352C32.3524 2.96083 31.8947 3.02384 31.4766 3.206L2.55121 15.7861C0.534886 16.6632 0.431702 19.6754 2.55121 20.584C4.65022 21.4873 6.77951 22.3137 8.93509 23.0616C10.9108 23.736 13.0658 24.3598 14.7929 24.5362C15.2648 25.1198 15.8586 25.6824 16.4642 26.1961C17.3894 26.9823 18.5025 27.7913 19.6527 28.5671C21.9566 30.1221 24.5125 31.609 26.2345 32.577C28.2931 33.7302 30.7577 32.4023 31.1265 30.0837L34.9663 6.047ZM5.79389 18.1676L31.3768 7.04118L27.7941 29.4757C26.1043 28.5269 23.6701 27.1064 21.5016 25.6422C20.5021 24.9794 19.5372 24.2626 18.6107 23.4949C18.3631 23.2859 18.1228 23.068 17.8901 22.8414L24.5903 15.9224C24.9077 15.5947 25.0861 15.1503 25.0863 14.6868C25.0865 14.2233 24.9084 13.7788 24.5912 13.4509C24.274 13.1231 23.8437 12.9388 23.395 12.9386C22.9463 12.9384 22.5159 13.1224 22.1985 13.45L14.8623 21.0278C13.6207 20.8635 11.8919 20.3883 9.994 19.7418C8.58107 19.2555 7.1811 18.73 5.79559 18.1658L5.79389 18.1676Z" fill="black"/>
</svg>
