<svg width="36" height="36" viewBox="0 0 36 36" fill="none" xmlns="http://www.w3.org/2000/svg">
<path d="M27.2287 4.03198C28.6953 2.53257 33.0287 3.01042 32.1361 4.03198C31.2435 5.05354 21.4161 16.3154 21.4161 16.3154C21.4161 16.3154 33.0287 31.5325 34.0287 33.0331C35.0287 34.5337 24.9468 33.867 24.1544 33.0331C23.362 32.1992 16.4149 22.896 16.4149 22.896C16.4149 22.896 8.69533 31.8659 7.56923 33.0331C6.69533 33.939 1.95247 33.867 2.65723 33.0331C3.36199 32.1992 14.1224 19.8903 14.1224 19.8903C14.1224 19.8903 2.63655 4.86931 2.02866 4.03426C1.42077 3.19922 10.6687 2.1992 12.1544 4.03426C13.6401 5.86932 19.1395 13.2983 19.1395 13.2983C19.1395 13.2983 25.762 5.53138 27.2287 4.03198ZM25.5029 30.0891H28.2229L10.6687 6.82283H7.75209L25.5029 30.0891Z" fill="black"/>
</svg>
