<svg width="1438" height="417" viewBox="0 0 1438 417" fill="none" xmlns="http://www.w3.org/2000/svg">
<path d="M0 2H1440M0 415H1440M36 27.5C36 21.9772 40.4772 17.5 46 17.5H66C71.5228 17.5 76 21.9772 76 27.5V42.5C76 48.0228 71.5228 52.5 66 52.5H46C40.4772 52.5 36 48.0228 36 42.5V27.5ZM456 27.5C456 21.9772 460.477 17.5 466 17.5H486C491.523 17.5 496 21.9772 496 27.5V42.5C496 48.0228 491.523 52.5 486 52.5H466C460.477 52.5 456 48.0228 456 42.5V27.5ZM876 27.5C876 21.9772 880.477 17.5 886 17.5H906C911.523 17.5 916 21.9772 916 27.5V42.5C916 48.0228 911.523 52.5 906 52.5H886C880.477 52.5 876 48.0228 876 42.5V27.5ZM176 27.5C176 21.9772 180.477 17.5 186 17.5H206C211.523 17.5 216 21.9772 216 27.5V42.5C216 48.0228 211.523 52.5 206 52.5H186C180.477 52.5 176 48.0228 176 42.5V27.5ZM596 27.5C596 21.9772 600.477 17.5 606 17.5H626C631.523 17.5 636 21.9772 636 27.5V42.5C636 48.0228 631.523 52.5 626 52.5H606C600.477 52.5 596 48.0228 596 42.5V27.5ZM1016 27.5C1016 21.9772 1020.48 17.5 1026 17.5H1046C1051.52 17.5 1056 21.9772 1056 27.5V42.5C1056 48.0228 1051.52 52.5 1046 52.5H1026C1020.48 52.5 1016 48.0228 1016 42.5V27.5ZM316 27.5C316 21.9772 320.477 17.5 326 17.5H346C351.523 17.5 356 21.9772 356 27.5V42.5C356 48.0228 351.523 52.5 346 52.5H326C320.477 52.5 316 48.0228 316 42.5V27.5ZM736 27.5C736 21.9772 740.477 17.5 746 17.5H766C771.523 17.5 776 21.9772 776 27.5V42.5C776 48.0228 771.523 52.5 766 52.5H746C740.477 52.5 736 48.0228 736 42.5V27.5ZM1156 27.5C1156 21.9772 1160.48 17.5 1166 17.5H1186C1191.52 17.5 1196 21.9772 1196 27.5V42.5C1196 48.0228 1191.52 52.5 1186 52.5H1166C1160.48 52.5 1156 48.0228 1156 42.5V27.5ZM1366 27.5C1366 21.9772 1370.48 17.5 1376 17.5H1396C1401.52 17.5 1406 21.9772 1406 27.5V42.5C1406 48.0228 1401.52 52.5 1396 52.5H1376C1370.48 52.5 1366 48.0228 1366 42.5V27.5ZM106 27.5C106 21.9772 110.477 17.5 116 17.5H136C141.523 17.5 146 21.9772 146 27.5V42.5C146 48.0228 141.523 52.5 136 52.5H116C110.477 52.5 106 48.0228 106 42.5V27.5ZM526 27.5C526 21.9772 530.477 17.5 536 17.5H556C561.523 17.5 566 21.9772 566 27.5V42.5C566 48.0228 561.523 52.5 556 52.5H536C530.477 52.5 526 48.0228 526 42.5V27.5ZM946 27.5C946 21.9772 950.477 17.5 956 17.5H976C981.523 17.5 986 21.9772 986 27.5V42.5C986 48.0228 981.523 52.5 976 52.5H956C950.477 52.5 946 48.0228 946 42.5V27.5ZM246 27.5C246 21.9772 250.477 17.5 256 17.5H276C281.523 17.5 286 21.9772 286 27.5V42.5C286 48.0228 281.523 52.5 276 52.5H256C250.477 52.5 246 48.0228 246 42.5V27.5ZM666 27.5C666 21.9772 670.477 17.5 676 17.5H696C701.523 17.5 706 21.9772 706 27.5V42.5C706 48.0228 701.523 52.5 696 52.5H676C670.477 52.5 666 48.0228 666 42.5V27.5ZM1086 27.5C1086 21.9772 1090.48 17.5 1096 17.5H1116C1121.52 17.5 1126 21.9772 1126 27.5V42.5C1126 48.0228 1121.52 52.5 1116 52.5H1096C1090.48 52.5 1086 48.0228 1086 42.5V27.5ZM1296 27.5C1296 21.9772 1300.48 17.5 1306 17.5H1326C1331.52 17.5 1336 21.9772 1336 27.5V42.5C1336 48.0228 1331.52 52.5 1326 52.5H1306C1300.48 52.5 1296 48.0228 1296 42.5V27.5ZM386 27.5C386 21.9772 390.477 17.5 396 17.5H416C421.523 17.5 426 21.9772 426 27.5V42.5C426 48.0228 421.523 52.5 416 52.5H396C390.477 52.5 386 48.0228 386 42.5V27.5ZM806 27.5C806 21.9772 810.477 17.5 816 17.5H836C841.523 17.5 846 21.9772 846 27.5V42.5C846 48.0228 841.523 52.5 836 52.5H816C810.477 52.5 806 48.0228 806 42.5V27.5ZM1226 27.5C1226 21.9772 1230.48 17.5 1236 17.5H1256C1261.52 17.5 1266 21.9772 1266 27.5V42.5C1266 48.0228 1261.52 52.5 1256 52.5H1236C1230.48 52.5 1226 48.0228 1226 42.5V27.5ZM35 375.5C35 369.977 39.4772 365.5 45 365.5H65C70.5228 365.5 75 369.977 75 375.5V390.5C75 396.023 70.5228 400.5 65 400.5H45C39.4772 400.5 35 396.023 35 390.5V375.5ZM455 375.5C455 369.977 459.477 365.5 465 365.5H485C490.523 365.5 495 369.977 495 375.5V390.5C495 396.023 490.523 400.5 485 400.5H465C459.477 400.5 455 396.023 455 390.5V375.5ZM875 375.5C875 369.977 879.477 365.5 885 365.5H905C910.523 365.5 915 369.977 915 375.5V390.5C915 396.023 910.523 400.5 905 400.5H885C879.477 400.5 875 396.023 875 390.5V375.5ZM175 375.5C175 369.977 179.477 365.5 185 365.5H205C210.523 365.5 215 369.977 215 375.5V390.5C215 396.023 210.523 400.5 205 400.5H185C179.477 400.5 175 396.023 175 390.5V375.5ZM595 375.5C595 369.977 599.477 365.5 605 365.5H625C630.523 365.5 635 369.977 635 375.5V390.5C635 396.023 630.523 400.5 625 400.5H605C599.477 400.5 595 396.023 595 390.5V375.5ZM1015 375.5C1015 369.977 1019.48 365.5 1025 365.5H1045C1050.52 365.5 1055 369.977 1055 375.5V390.5C1055 396.023 1050.52 400.5 1045 400.5H1025C1019.48 400.5 1015 396.023 1015 390.5V375.5ZM315 375.5C315 369.977 319.477 365.5 325 365.5H345C350.523 365.5 355 369.977 355 375.5V390.5C355 396.023 350.523 400.5 345 400.5H325C319.477 400.5 315 396.023 315 390.5V375.5ZM735 375.5C735 369.977 739.477 365.5 745 365.5H765C770.523 365.5 775 369.977 775 375.5V390.5C775 396.023 770.523 400.5 765 400.5H745C739.477 400.5 735 396.023 735 390.5V375.5ZM1155 375.5C1155 369.977 1159.48 365.5 1165 365.5H1185C1190.52 365.5 1195 369.977 1195 375.5V390.5C1195 396.023 1190.52 400.5 1185 400.5H1165C1159.48 400.5 1155 396.023 1155 390.5V375.5ZM1365 375.5C1365 369.977 1369.48 365.5 1375 365.5H1395C1400.52 365.5 1405 369.977 1405 375.5V390.5C1405 396.023 1400.52 400.5 1395 400.5H1375C1369.48 400.5 1365 396.023 1365 390.5V375.5ZM105 375.5C105 369.977 109.477 365.5 115 365.5H135C140.523 365.5 145 369.977 145 375.5V390.5C145 396.023 140.523 400.5 135 400.5H115C109.477 400.5 105 396.023 105 390.5V375.5ZM525 375.5C525 369.977 529.477 365.5 535 365.5H555C560.523 365.5 565 369.977 565 375.5V390.5C565 396.023 560.523 400.5 555 400.5H535C529.477 400.5 525 396.023 525 390.5V375.5ZM945 375.5C945 369.977 949.477 365.5 955 365.5H975C980.523 365.5 985 369.977 985 375.5V390.5C985 396.023 980.523 400.5 975 400.5H955C949.477 400.5 945 396.023 945 390.5V375.5ZM245 375.5C245 369.977 249.477 365.5 255 365.5H275C280.523 365.5 285 369.977 285 375.5V390.5C285 396.023 280.523 400.5 275 400.5H255C249.477 400.5 245 396.023 245 390.5V375.5ZM665 375.5C665 369.977 669.477 365.5 675 365.5H695C700.523 365.5 705 369.977 705 375.5V390.5C705 396.023 700.523 400.5 695 400.5H675C669.477 400.5 665 396.023 665 390.5V375.5ZM1085 375.5C1085 369.977 1089.48 365.5 1095 365.5H1115C1120.52 365.5 1125 369.977 1125 375.5V390.5C1125 396.023 1120.52 400.5 1115 400.5H1095C1089.48 400.5 1085 396.023 1085 390.5V375.5ZM1295 375.5C1295 369.977 1299.48 365.5 1305 365.5H1325C1330.52 365.5 1335 369.977 1335 375.5V390.5C1335 396.023 1330.52 400.5 1325 400.5H1305C1299.48 400.5 1295 396.023 1295 390.5V375.5ZM385 375.5C385 369.977 389.477 365.5 395 365.5H415C420.523 365.5 425 369.977 425 375.5V390.5C425 396.023 420.523 400.5 415 400.5H395C389.477 400.5 385 396.023 385 390.5V375.5ZM805 375.5C805 369.977 809.477 365.5 815 365.5H835C840.523 365.5 845 369.977 845 375.5V390.5C845 396.023 840.523 400.5 835 400.5H815C809.477 400.5 805 396.023 805 390.5V375.5ZM1225 375.5C1225 369.977 1229.48 365.5 1235 365.5H1255C1260.52 365.5 1265 369.977 1265 375.5V390.5C1265 396.023 1260.52 400.5 1255 400.5H1235C1229.48 400.5 1225 396.023 1225 390.5V375.5Z" stroke="black" stroke-width="4"/>
</svg>
