<svg width="36" height="36" viewBox="0 0 36 36" fill="none" xmlns="http://www.w3.org/2000/svg">
<path fill-rule="evenodd" clip-rule="evenodd" d="M14.4149 3.80324C12.4995 4.7971 10.9253 5.63623 10.9313 5.67194C10.9313 5.76121 15.5342 8.07625 15.6958 8.0703C15.7677 8.0703 16.3064 7.82034 16.893 7.52278L17.9584 6.98122L19.1196 7.57634L20.2808 8.17147L22.1842 7.32044C25.0453 6.04091 25.3446 5.89808 25.2967 5.85642C25.2369 5.79096 24.2074 5.24344 21.4181 3.78538C20.0713 3.08313 18.7665 2.38683 18.5151 2.24995C18.2637 2.10712 18.0242 2 17.9823 2C17.9404 2 16.3303 2.80937 14.4149 3.80324ZM6.00517 8.13576L4.00599 9.15938V13.6585C4.00599 16.1343 4.02993 18.1577 4.06584 18.1577C4.09577 18.1577 5.07741 17.7352 6.25058 17.2174L8.37547 16.2771V11.5339L9.41097 12.0934C10.213 12.5278 11.0091 12.9563 11.8112 13.3907L13.1759 14.1227L13.7805 13.849C14.1635 13.6764 14.5406 13.5038 14.9177 13.3312C15.211 13.1943 15.9293 12.873 16.5159 12.6171C17.1025 12.3612 17.6412 12.0993 17.719 12.0398C17.8207 11.9624 16.5757 11.278 13.1161 9.51051C10.5063 8.17742 8.28568 7.09429 8.18393 7.10024C8.08217 7.10619 7.10054 7.57039 6.00517 8.13576ZM23.1778 9.58787C23.1778 10.3028 26.4699 11.5458 26.4699 11.5458C26.4699 11.5458 14.0633 17.1776 12.308 17.9673C10.5782 18.7409 9.02191 19.4432 8.84833 19.5205C5.32282 21.1095 4.34716 21.5499 4.21548 21.6273C4.0838 21.7047 4.05387 22.1451 4.02993 24.3649L4 27.0132L5.78371 27.9178L7.56741 28.8224L10.0454 27.7095C11.4042 27.0965 12.5235 26.5669 12.5235 26.5252C12.5235 26.4835 12.2721 26.3229 11.9668 26.1622C11.6616 26.0015 11.0271 25.6444 10.5542 25.3707C10.0873 25.0969 9.62047 24.8469 9.51872 24.8112C9.41696 24.7755 9.33316 24.722 9.33316 24.6803C9.33316 24.6446 10.4225 24.1268 11.7573 23.5377C14.3431 22.3891 16.3183 21.5023 20.5621 19.592C22.4596 18.7409 24.357 17.8839 26.2604 17.0329C27.9304 16.2831 29.8697 15.4082 30.57 15.0868L31.845 14.5036L31.8749 11.8256L31.9048 9.14748C30.9532 8.66498 29.2371 7.30854 28.2057 7.30854C27.6785 7.30854 23.1778 9.26963 23.1778 9.58787ZM31.3661 18.0863C31.0968 18.2172 30.57 18.4612 30.1929 18.6279C29.8159 18.7945 29.0976 19.1159 28.6008 19.342L27.697 19.7526L27.679 22.1034C27.667 23.3948 27.6191 24.4482 27.5713 24.4423C27.4635 24.4244 25.7696 23.5615 24.0637 22.6509C22.8307 21.9963 22.7529 21.9665 22.4655 22.1094C22.298 22.1927 21.2984 22.639 20.2449 23.0973C19.1914 23.5615 18.2936 23.9662 18.2517 24.0078C18.2098 24.0435 20.3287 25.1862 22.9683 26.549L27.7568 29.0247L29.8039 27.9714C30.9292 27.3941 31.8869 26.8644 31.9288 26.799C32.0305 26.6502 32.0186 17.8304 31.9228 17.8423C31.8809 17.8482 31.6295 17.9554 31.3661 18.0863ZM20.0294 28.4356C19.6763 28.5843 19.3171 28.7391 18.964 28.8938C17.8926 29.3521 18.1021 29.3699 16.8271 28.7391C15.9772 28.3165 15.612 28.1916 15.4504 28.2511C15.3307 28.2987 14.3072 28.7569 13.1699 29.2687C12.0386 29.7805 11.069 30.2031 11.0211 30.2031C10.5423 30.2031 11.3383 30.6732 14.391 32.2027L17.9704 34L19.4787 33.262C20.3048 32.8574 21.9807 32.042 23.1898 31.4529C24.4049 30.8637 25.3805 30.3697 25.3626 30.3459C25.3446 30.3281 24.3271 29.8103 23.1 29.1914L20.8734 28.0725L20.0294 28.4356Z" fill="#3B82FF"/>
</svg>
