<svg width="36" height="36" viewBox="0 0 36 36" fill="none" xmlns="http://www.w3.org/2000/svg">
<path d="M7.16753 2.81761C7.82527 4.59958 10.5012 8.83711 15.9431 11.5314C16.5316 11.0681 18.1033 10.4195 19.6819 11.5314C21.9839 10.3732 26.962 7.00881 28.4575 2.81761C27.9555 3.3522 26.8685 4.42138 26.5362 4.42138C26.1208 4.42138 25.9131 4.58176 25.238 3.94025C24.563 3.29874 22.2881 1 17.3971 1C13.5026 0.999997 10.387 3.94025 10.387 3.94025C10.387 3.94025 9.72232 4.63522 9.14074 4.42138C8.55916 4.20755 7.58294 3.2631 7.16753 2.81761Z" fill="#3B82FF"/>
<path d="M8.15414 7.30818L9.91964 9.5C9.03689 11.1572 8.41377 14.7925 13.3987 15.4874V17.0377L9.71194 19.2296L12.3083 20.673C13.0699 21.0294 14.8215 22.5761 15.7354 25.912L17.8644 32.8082L19.8896 25.912C20.4088 24.3082 21.842 21.0151 23.4206 20.673L25.965 19.2296L22.2782 17.0377V15.4874C24.2514 15.3449 27.689 13.9478 25.6534 9.5L27.4709 7.30818C27.9555 7.93187 28.9456 9.86352 29.0287 12.6006C29.0287 17.5189 28.6756 22.7151 31.625 28.7453L27.8344 25.5912L25.1342 30.2421L22.2782 27.3554L17.8644 35L13.243 27.3554L10.4389 30.0818L7.68679 25.5912L4 28.6918C4.9693 27.0168 6.87674 22.0308 6.75211 15.4874C6.56172 13.7589 6.57556 9.70315 8.15414 7.30818Z" fill="#3B82FF"/>
<path d="M13.5545 19.2296C14.5411 19.7463 16.774 21.9132 17.8125 26.4465C18.4179 24.3082 20.1274 19.8711 22.1224 19.2296L20.4608 18.1069C20.4954 16.2893 20.0142 12.6755 17.8125 12.761C15.6108 12.8465 15.1642 16.3606 15.2162 18.1069L13.5545 19.2296Z" fill="#3B82FF"/>
<path d="M24.2514 10.8899L20.7723 13.0818C21.0839 13.4025 22.382 13.7512 23.6283 13.0818C24.8226 12.4403 24.511 11.2107 24.2514 10.8899Z" fill="#3B82FF"/>
<path d="M11.4255 10.783L14.8008 13.0283C14.5238 13.3134 13.6376 13.766 12.3083 13.2956C10.9789 12.8252 11.1659 11.4245 11.4255 10.783Z" fill="#3B82FF"/>
</svg>
